<mxfile host="app.diagrams.net" modified="2024-06-24T19:39:52.353Z" agent="Mozilla/5.0 (Windows NT 10.0; Win64; x64) AppleWebKit/537.36 (KHTML, like Gecko) Chrome/125.0.0.0 Safari/537.36 OPR/111.0.0.0" etag="JRdtzTIvg0-Flzy8GCun" version="23.1.5" type="device">
  <diagram name="Page-1" id="t5IGsh8d9YDuiB6KH6eN">
    <mxGraphModel dx="732" dy="1099" grid="1" gridSize="10" guides="1" tooltips="1" connect="1" arrows="1" fold="1" page="1" pageScale="1" pageWidth="850" pageHeight="1100" background="#ffffff" math="0" shadow="0">
      <root>
        <mxCell id="0" />
        <mxCell id="1" parent="0" />
        <mxCell id="oxyW2Y3rn5X7JD119dcl-26" value="" style="rounded=0;whiteSpace=wrap;html=1;strokeColor=none;" parent="1" vertex="1">
          <mxGeometry x="80" y="110" width="680" height="460" as="geometry" />
        </mxCell>
        <mxCell id="oxyW2Y3rn5X7JD119dcl-12" style="edgeStyle=none;curved=1;rounded=0;orthogonalLoop=1;jettySize=auto;html=1;fontSize=12;startSize=8;endSize=8;" parent="1" source="oxyW2Y3rn5X7JD119dcl-5" target="oxyW2Y3rn5X7JD119dcl-7" edge="1">
          <mxGeometry relative="1" as="geometry" />
        </mxCell>
        <mxCell id="oxyW2Y3rn5X7JD119dcl-17" style="edgeStyle=orthogonalEdgeStyle;rounded=0;orthogonalLoop=1;jettySize=auto;html=1;fontSize=12;startSize=8;endSize=8;entryX=0;entryY=0.333;entryDx=0;entryDy=0;entryPerimeter=0;" parent="1" source="oxyW2Y3rn5X7JD119dcl-5" target="oxyW2Y3rn5X7JD119dcl-15" edge="1">
          <mxGeometry relative="1" as="geometry">
            <mxPoint x="590" y="400" as="targetPoint" />
          </mxGeometry>
        </mxCell>
        <mxCell id="oxyW2Y3rn5X7JD119dcl-5" value="Gitlab" style="swimlane;whiteSpace=wrap;html=1;" parent="1" vertex="1" collapsed="1">
          <mxGeometry x="350" y="280" width="140" height="30" as="geometry">
            <mxRectangle x="425" y="180" width="200" height="200" as="alternateBounds" />
          </mxGeometry>
        </mxCell>
        <mxCell id="oxyW2Y3rn5X7JD119dcl-11" style="edgeStyle=none;curved=1;rounded=0;orthogonalLoop=1;jettySize=auto;html=1;entryX=0.5;entryY=0;entryDx=0;entryDy=0;fontSize=12;startSize=8;endSize=8;" parent="1" source="oxyW2Y3rn5X7JD119dcl-7" target="oxyW2Y3rn5X7JD119dcl-8" edge="1">
          <mxGeometry relative="1" as="geometry" />
        </mxCell>
        <mxCell id="oxyW2Y3rn5X7JD119dcl-7" value="Prometheus" style="swimlane;whiteSpace=wrap;html=1;startSize=23;" parent="1" vertex="1" collapsed="1">
          <mxGeometry x="350" y="390" width="140" height="30" as="geometry">
            <mxRectangle x="330" y="500" width="200" height="200" as="alternateBounds" />
          </mxGeometry>
        </mxCell>
        <mxCell id="oxyW2Y3rn5X7JD119dcl-18" style="edgeStyle=orthogonalEdgeStyle;rounded=0;orthogonalLoop=1;jettySize=auto;html=1;entryX=0;entryY=0.5;entryDx=0;entryDy=0;fontSize=12;startSize=8;endSize=8;" parent="1" source="oxyW2Y3rn5X7JD119dcl-8" target="oxyW2Y3rn5X7JD119dcl-15" edge="1">
          <mxGeometry relative="1" as="geometry" />
        </mxCell>
        <mxCell id="oxyW2Y3rn5X7JD119dcl-8" value="Grafana" style="swimlane;whiteSpace=wrap;html=1;startSize=23;" parent="1" vertex="1" collapsed="1">
          <mxGeometry x="350" y="500" width="140" height="30" as="geometry">
            <mxRectangle x="330" y="500" width="200" height="200" as="alternateBounds" />
          </mxGeometry>
        </mxCell>
        <mxCell id="oxyW2Y3rn5X7JD119dcl-14" style="edgeStyle=none;curved=1;rounded=0;orthogonalLoop=1;jettySize=auto;html=1;fontSize=12;startSize=8;endSize=8;" parent="1" source="oxyW2Y3rn5X7JD119dcl-13" target="oxyW2Y3rn5X7JD119dcl-5" edge="1">
          <mxGeometry relative="1" as="geometry" />
        </mxCell>
        <mxCell id="oxyW2Y3rn5X7JD119dcl-13" value="Registry" style="swimlane;whiteSpace=wrap;html=1;startSize=23;" parent="1" vertex="1" collapsed="1">
          <mxGeometry x="120" y="280" width="140" height="30" as="geometry">
            <mxRectangle x="330" y="500" width="200" height="200" as="alternateBounds" />
          </mxGeometry>
        </mxCell>
        <mxCell id="oxyW2Y3rn5X7JD119dcl-15" value="nginx" style="swimlane;whiteSpace=wrap;html=1;startSize=23;" parent="1" vertex="1" collapsed="1">
          <mxGeometry x="580" y="390" width="140" height="30" as="geometry">
            <mxRectangle x="330" y="500" width="200" height="200" as="alternateBounds" />
          </mxGeometry>
        </mxCell>
        <mxCell id="oxyW2Y3rn5X7JD119dcl-21" style="edgeStyle=none;curved=1;rounded=0;orthogonalLoop=1;jettySize=auto;html=1;fontSize=12;startSize=8;endSize=8;" parent="1" source="oxyW2Y3rn5X7JD119dcl-20" target="oxyW2Y3rn5X7JD119dcl-8" edge="1">
          <mxGeometry relative="1" as="geometry" />
        </mxCell>
        <mxCell id="oxyW2Y3rn5X7JD119dcl-20" value="Keycloak" style="swimlane;whiteSpace=wrap;html=1;startSize=23;" parent="1" vertex="1" collapsed="1">
          <mxGeometry x="120" y="500" width="140" height="30" as="geometry">
            <mxRectangle x="330" y="500" width="200" height="200" as="alternateBounds" />
          </mxGeometry>
        </mxCell>
        <mxCell id="oxyW2Y3rn5X7JD119dcl-24" style="edgeStyle=orthogonalEdgeStyle;rounded=0;orthogonalLoop=1;jettySize=auto;html=1;entryX=0.5;entryY=0;entryDx=0;entryDy=0;fontSize=12;startSize=8;endSize=8;" parent="1" source="oxyW2Y3rn5X7JD119dcl-22" target="oxyW2Y3rn5X7JD119dcl-5" edge="1">
          <mxGeometry relative="1" as="geometry">
            <Array as="points">
              <mxPoint x="230" y="240" />
              <mxPoint x="420" y="240" />
            </Array>
          </mxGeometry>
        </mxCell>
        <mxCell id="oxyW2Y3rn5X7JD119dcl-22" value="Node Exporter" style="swimlane;whiteSpace=wrap;html=1;startSize=23;" parent="1" vertex="1" collapsed="1">
          <mxGeometry x="200" y="130" width="140" height="30" as="geometry">
            <mxRectangle x="425" y="180" width="200" height="200" as="alternateBounds" />
          </mxGeometry>
        </mxCell>
        <mxCell id="oxyW2Y3rn5X7JD119dcl-25" style="edgeStyle=orthogonalEdgeStyle;rounded=0;orthogonalLoop=1;jettySize=auto;html=1;entryX=0.5;entryY=0;entryDx=0;entryDy=0;fontSize=12;startSize=8;endSize=8;" parent="1" source="oxyW2Y3rn5X7JD119dcl-23" target="oxyW2Y3rn5X7JD119dcl-5" edge="1">
          <mxGeometry relative="1" as="geometry">
            <Array as="points">
              <mxPoint x="380" y="240" />
              <mxPoint x="420" y="240" />
            </Array>
          </mxGeometry>
        </mxCell>
        <mxCell id="oxyW2Y3rn5X7JD119dcl-23" value="Cadvisor" style="swimlane;whiteSpace=wrap;html=1;" parent="1" vertex="1" collapsed="1">
          <mxGeometry x="310" y="190" width="140" height="30" as="geometry">
            <mxRectangle x="425" y="180" width="200" height="200" as="alternateBounds" />
          </mxGeometry>
        </mxCell>
        <mxCell id="mQ8_XkuDGPz5ov-F_9oT-2" style="edgeStyle=orthogonalEdgeStyle;rounded=0;orthogonalLoop=1;jettySize=auto;html=1;entryX=0.5;entryY=0;entryDx=0;entryDy=0;" edge="1" parent="1" source="mQ8_XkuDGPz5ov-F_9oT-1" target="oxyW2Y3rn5X7JD119dcl-5">
          <mxGeometry relative="1" as="geometry">
            <Array as="points">
              <mxPoint x="480" y="240" />
              <mxPoint x="420" y="240" />
            </Array>
          </mxGeometry>
        </mxCell>
        <mxCell id="mQ8_XkuDGPz5ov-F_9oT-1" value="GitLab CI Exporter" style="swimlane;whiteSpace=wrap;html=1;" vertex="1" collapsed="1" parent="1">
          <mxGeometry x="420" y="130" width="140" height="30" as="geometry">
            <mxRectangle x="425" y="180" width="200" height="200" as="alternateBounds" />
          </mxGeometry>
        </mxCell>
        <mxCell id="mQ8_XkuDGPz5ov-F_9oT-4" style="edgeStyle=orthogonalEdgeStyle;rounded=0;orthogonalLoop=1;jettySize=auto;html=1;" edge="1" parent="1" source="mQ8_XkuDGPz5ov-F_9oT-3" target="oxyW2Y3rn5X7JD119dcl-5">
          <mxGeometry relative="1" as="geometry">
            <Array as="points">
              <mxPoint x="590" y="240" />
              <mxPoint x="420" y="240" />
            </Array>
          </mxGeometry>
        </mxCell>
        <mxCell id="mQ8_XkuDGPz5ov-F_9oT-3" value="Blackbox" style="swimlane;whiteSpace=wrap;html=1;" vertex="1" collapsed="1" parent="1">
          <mxGeometry x="510" y="190" width="140" height="30" as="geometry">
            <mxRectangle x="425" y="180" width="200" height="200" as="alternateBounds" />
          </mxGeometry>
        </mxCell>
      </root>
    </mxGraphModel>
  </diagram>
</mxfile>
